<svg width="721" height="404" viewBox="0 0 721 404" fill="none" xmlns="http://www.w3.org/2000/svg">
<path opacity="0.04" fill-rule="evenodd" clip-rule="evenodd" d="M720.534 213.574C720.534 235.867 720.534 258.161 720.534 280.454C605.366 180.366 493.827 165.343 375.912 260.889C373.182 263.169 370.902 264.982 368.171 267.261V266.346C372.267 276.811 376.828 287.275 381.373 298.19C405.512 353.707 411.887 428.774 349.959 396.016C329.482 385.085 299.883 358.25 266.204 328.22H266.654C255.267 333.227 244.346 338.235 233.875 342.327C75.4401 409.208 -57.9407 307.755 25.8299 225.851C85.0121 167.622 183.799 247.231 260.278 315.026H259.828C287.597 299.554 317.18 278.625 348.594 251.789C176.058 -138.566 493.377 -7.54874 721 193.094C518.865 20.218 219.758 -125.839 359.065 243.603H358.166C486.536 133.499 599.905 122.12 720.534 213.574ZM255.267 317.755C178.788 249.06 86.3771 171.265 32.6553 228.131C-21.9818 285.911 65.8842 422.851 255.267 317.755ZM272.115 325.491C299.883 311.848 329.016 295.461 358.615 274.082C363.16 283.182 367.722 292.732 372.732 302.748C397.305 352.792 404.146 423.766 342.218 384.187C324.921 373.256 300.349 350.962 272.115 325.491Z" fill="#E30016"/>
</svg>
