<svg width="721" height="404" viewBox="0 0 721 404" fill="none" xmlns="http://www.w3.org/2000/svg">
<path opacity="0.04" fill-rule="evenodd" clip-rule="evenodd" d="M0.465616 213.574C0.465616 235.867 0.465616 258.161 0.465616 280.454C115.634 180.366 227.173 165.343 345.088 260.889C347.818 263.169 350.098 264.982 352.829 267.261V266.346C348.733 276.811 344.172 287.275 339.627 298.19C315.488 353.707 309.113 428.774 371.041 396.016C391.518 385.085 421.117 358.25 454.796 328.22H454.346C465.733 333.227 476.654 338.235 487.125 342.327C645.56 409.208 778.941 307.755 695.17 225.851C635.988 167.622 537.201 247.231 460.722 315.026H461.172C433.403 299.554 403.82 278.625 372.406 251.789C544.942 -138.566 227.623 -7.54874 0 193.094C202.135 20.218 501.242 -125.839 361.935 243.603H362.834C234.464 133.499 121.095 122.12 0.465616 213.574ZM465.733 317.755C542.212 249.06 634.623 171.265 688.345 228.131C742.982 285.911 655.116 422.851 465.733 317.755ZM448.885 325.491C421.117 311.848 391.984 295.461 362.385 274.082C357.84 283.182 353.278 292.732 348.268 302.748C323.695 352.792 316.854 423.766 378.782 384.187C396.079 373.256 420.651 350.962 448.885 325.491Z" fill="#E30016"/>
</svg>
