<svg width="258" height="163" viewBox="0 0 258 163" fill="none" xmlns="http://www.w3.org/2000/svg">
<path fill-rule="evenodd" clip-rule="evenodd" d="M1.71002 42.2144C1.71002 46.6209 1.71002 51.0273 1.71002 55.4338C24.4594 35.6506 46.4919 32.6812 69.7838 51.5667C70.3231 52.0171 70.7736 52.3755 71.3129 52.826V52.6452C70.5039 54.7136 69.6029 56.782 68.7051 58.9393C63.937 69.9127 62.6776 84.7502 74.9104 78.2753C78.9552 76.1148 84.802 70.8106 91.4546 64.875H91.3657C93.615 65.8648 95.7722 66.8545 97.8406 67.6634C129.137 80.8829 155.483 60.83 138.936 44.6411C127.246 33.1316 107.732 48.8669 92.6252 62.2672H92.714C87.2289 59.209 81.3853 55.0721 75.18 49.7678C109.261 -27.3886 46.5807 -1.49205 1.61804 38.1664C41.5461 3.99624 100.629 -24.8729 73.1116 48.1499H73.2893C47.9322 26.3871 25.538 24.1379 1.71002 42.2144V42.2144ZM93.615 62.8064C108.722 49.2285 126.976 33.8518 137.588 45.0917C148.38 56.5124 131.024 83.5794 93.615 62.8064ZM90.2871 64.3355C84.802 61.639 79.0472 58.3999 73.2005 54.1743C72.3027 55.973 71.4017 57.8606 70.4119 59.8402C65.5581 69.7318 64.2067 83.7604 76.4395 75.9372C79.8562 73.7768 84.71 69.3701 90.2871 64.3355V64.3355Z" fill="#E30016"/>
<path fill-rule="evenodd" clip-rule="evenodd" d="M0 125.487V124.856C1.79876 124.856 3.14704 124.316 4.04801 123.238C4.49532 122.518 4.85699 121.62 4.94582 120.449C5.03465 119.821 5.03465 118.92 5.03465 117.842V99.9459C5.03465 98.2392 4.9458 96.9796 4.76497 96.2594C4.31766 94.0102 2.69656 92.9317 0 92.8428V92.3036H15.8272C17.9844 92.3036 19.5136 92.3923 20.3225 92.4812C22.7526 92.9316 24.4594 93.9215 25.63 95.4506C26.439 96.7101 26.8894 98.0583 26.8894 99.7682C26.8894 102.106 26.0773 103.994 24.4594 105.342C23.7392 106.062 22.4829 106.69 20.773 107.322C23.4696 107.769 25.4492 108.489 26.7086 109.479C27.7872 110.377 28.5962 111.459 29.1355 112.715C29.6748 113.974 29.9445 115.323 29.9445 116.674C29.9445 118.562 29.4972 120.272 28.5962 121.709C27.4288 123.419 25.63 124.586 23.1111 125.125C21.9436 125.306 20.1449 125.487 17.626 125.487H0ZM10.3421 93.0237V107.411H12.3185C15.2879 107.411 17.3563 106.96 18.6158 106.062C20.3225 104.803 21.2235 102.915 21.2235 100.485C21.2235 98.8673 20.8618 97.4302 20.0529 96.0788C19.2439 94.6417 17.9844 93.7405 16.2777 93.2932C15.5575 93.1124 14.2981 93.0237 12.5914 93.0237H10.3421ZM10.3421 108.22V118.292C10.3421 120.271 10.6117 121.709 11.151 122.699C11.8712 124.047 13.4003 124.678 15.5576 124.678C18.4349 124.678 20.5922 123.958 22.1213 122.34C23.3807 120.9 24.012 119.101 24.012 116.763C24.012 114.336 23.4695 112.356 22.3021 110.827C21.2235 109.479 19.5136 108.67 17.2675 108.308C16.3665 108.22 14.7486 108.22 12.4105 108.22H10.3421ZM59.3528 92.3036L59.8001 100.307H59.2608C58.9023 98.0582 58.0013 96.2595 56.4754 94.9112C55.4856 94.0102 54.2262 93.4709 52.7859 93.2932C51.7993 93.1124 50.6286 93.0237 49.2803 93.0237H43.7032V107.591H45.1435C46.9423 107.591 48.2017 107.411 48.9187 107.23C49.8197 106.871 50.4478 106.332 50.8983 105.523C51.3488 104.714 51.7073 103.454 51.8881 101.745H52.4274L52.3386 114.875H51.7993C51.5296 112.807 50.9871 111.278 50.1781 110.199C49.55 109.479 48.741 108.94 47.6624 108.581C46.9423 108.4 46.0413 108.308 45.0547 108.308H43.7032V113.974C43.7032 115.773 43.7953 117.213 43.7953 118.203C43.9729 120.63 44.7851 122.34 46.2222 123.419C47.3928 124.316 49.1916 124.678 51.5296 124.678C55.5745 124.678 58.363 123.507 59.9809 121.169C60.7899 119.91 61.51 118.111 61.9605 115.773H62.5887L62.2301 125.487H33.3643V124.948C35.1599 124.856 36.5114 124.316 37.4092 123.238C37.9485 122.518 38.2181 121.62 38.3101 120.449C38.399 119.729 38.399 118.92 38.399 117.842V99.9459C38.399 98.2392 38.3101 97.0684 38.2181 96.2594C37.6788 94.0102 36.0609 92.9317 33.3643 92.8428V92.3036H59.3528ZM70.4118 96.71V117.842C70.5038 119.551 70.5926 120.719 70.6815 121.528C70.9511 122.879 71.7601 123.866 73.1116 124.405C73.7397 124.678 74.5487 124.856 75.5385 124.856V125.487H64.2986V124.856C66.1862 124.856 67.5345 124.316 68.4354 123.238C68.8827 122.518 69.2444 121.62 69.3332 120.449C69.4221 119.729 69.4221 118.92 69.4221 117.842V99.8571C69.4221 98.2391 69.3332 97.0684 69.1524 96.2594C68.7051 94.0102 67.084 92.9317 64.3874 92.8428V92.3036H73.6509L93.3453 117.483V99.9459C93.3453 98.2392 93.2533 96.9796 93.0756 96.2594C92.8059 94.8223 91.9938 93.9214 90.7375 93.2932C90.0174 93.0236 89.2084 92.9317 88.2186 92.8428V92.3036H99.4585V92.8428C97.6597 92.9317 96.3115 93.4709 95.4137 94.5495C94.8744 95.1808 94.6015 96.1707 94.4239 97.3381C94.3319 97.9695 94.3319 98.8673 94.3319 99.8571V125.487H93.2533L70.4118 96.71ZM127.877 92.3036L128.235 100.307H127.696C127.427 98.0582 126.526 96.2595 124.908 94.9112C123.918 94.0102 122.662 93.4709 121.221 93.2932C120.231 93.1124 119.064 93.0237 117.716 93.0237H112.227V107.591H113.668C115.378 107.591 116.634 107.411 117.354 107.23C118.255 106.871 118.883 106.332 119.334 105.523C119.781 104.714 120.143 103.454 120.324 101.745H120.863L120.771 114.875H120.231C120.054 112.807 119.511 111.278 118.702 110.199C118.074 109.479 117.173 108.94 116.095 108.581C115.378 108.4 114.566 108.308 113.579 108.308H112.227V113.974C112.227 115.773 112.227 117.213 112.319 118.203C112.497 120.63 113.309 122.34 114.658 123.419C115.825 124.316 117.624 124.678 120.054 124.678C124.01 124.678 126.798 123.507 128.416 121.169C129.314 119.91 129.945 118.111 130.485 115.773H131.024L130.754 125.487H101.797V124.948C103.595 124.856 104.944 124.316 105.845 123.238C106.384 122.518 106.742 121.62 106.834 120.449C106.923 119.729 106.923 118.92 106.923 117.842V99.9459C106.923 98.2392 106.834 97.0684 106.654 96.2594C106.114 94.0102 104.496 92.9317 101.797 92.8428V92.3036H127.877ZM133.901 125.395L133.99 115.415H134.53C136.328 122.067 139.387 125.487 143.612 125.487C145.681 125.487 147.302 124.678 148.558 123.238C149.548 121.978 149.998 120.541 149.998 118.831C149.998 117.934 149.817 116.944 149.459 116.043C149.097 115.053 148.65 114.244 148.111 113.705C147.21 112.715 145.411 111.547 142.622 110.107C139.926 108.67 138.038 107.41 137.137 106.421C135.789 104.892 135.069 103.093 135.069 100.936C135.069 98.4167 135.97 96.1707 137.677 94.3719C139.387 92.3923 141.636 91.4946 144.244 91.4946C145.233 91.4946 146.131 91.5834 147.029 91.853C147.479 92.0338 148.2 92.3035 149.008 92.5731C150.268 93.1124 151.077 93.3821 151.435 93.3821C151.978 93.3821 152.336 92.9317 152.517 92.1227H153.057L153.234 101.745H152.695C151.978 99.1368 151.166 97.1605 150.449 95.9899C148.92 93.471 146.94 92.2114 144.513 92.2114C142.895 92.2114 141.544 92.7541 140.557 93.7407C139.387 94.9113 138.847 96.2595 138.847 97.8774C138.847 99.7682 139.567 101.294 141.096 102.554C141.994 103.274 142.984 103.902 144.063 104.444L147.479 106.062C150.087 107.322 151.978 108.67 153.145 110.199C154.494 111.906 155.125 113.885 155.125 116.135C155.125 118.203 154.494 120.18 153.415 121.89C151.435 124.856 148.469 126.296 144.513 126.296C142.445 126.296 140.376 125.846 138.489 125.037C137.588 124.678 136.96 124.405 136.779 124.316C136.509 124.228 136.328 124.228 136.059 124.228C135.25 124.228 134.799 124.586 134.53 125.395H133.901ZM171.669 93.0237C169.331 93.1125 167.443 93.2013 165.914 93.3821C164.296 93.5629 162.948 93.9214 161.958 94.5495C160.88 95.1808 160.071 96.0787 159.439 97.3381C158.9 98.4168 158.45 99.7682 158.18 101.294L157.552 101.205L158.002 92.3036H190.916L191.363 101.205L190.646 101.294C190.285 99.0481 189.565 97.3382 188.486 96.0788C187.227 94.5497 185.428 93.6518 182.912 93.3821C181.383 93.2013 179.403 93.0237 176.977 93.0237V117.842C176.977 119.459 177.065 120.719 177.157 121.528C177.427 122.879 178.236 123.866 179.584 124.405C180.212 124.678 181.021 124.856 182.011 124.856V125.487H166.546V124.856C168.344 124.856 169.693 124.316 170.59 123.238C171.13 122.518 171.491 121.62 171.58 120.449C171.669 119.821 171.669 118.92 171.669 117.842V93.0237ZM222.39 125.487H206.471V124.856C207.911 124.767 208.901 124.586 209.529 124.136C210.519 123.507 211.058 122.698 211.058 121.62C211.058 120.9 210.699 119.64 209.979 117.933L207.641 112.176H196.941L195.681 115.503C194.603 118.292 193.971 120.179 193.971 121.258C193.971 122.61 194.603 123.596 195.681 124.316C196.309 124.678 197.029 124.856 197.93 124.856V125.487H186.957V124.856C188.578 124.856 190.015 124.047 191.363 122.248C191.995 121.35 192.534 120.272 193.073 119.012C193.524 118.022 194.063 116.763 194.691 115.234L203.504 92.3036H204.945L215.375 117.842C216.635 120.9 217.714 122.787 218.523 123.596C219.243 124.316 220.591 124.767 222.39 124.856V125.487ZM207.191 111.189L202.156 98.5088L197.388 111.189H207.191ZM233.449 109.298V117.842C233.449 119.459 233.541 120.719 233.718 121.528C233.988 122.879 234.8 123.866 236.148 124.405C236.777 124.678 237.586 124.856 238.575 124.856V125.487H223.11V124.856C224.909 124.856 226.257 124.316 227.155 123.238C227.694 122.518 227.964 121.62 228.056 120.449C228.144 119.821 228.233 118.92 228.233 117.842V99.9459C228.144 98.2392 228.056 96.9796 227.964 96.2594C227.424 94.0102 225.806 92.9317 223.11 92.8428V92.3036H234.8C237.408 92.3036 239.207 92.3035 240.374 92.4812C243.521 92.754 245.859 93.6518 247.3 95.1809C248.829 96.618 249.546 98.5088 249.546 100.666C249.546 103.455 248.467 105.612 246.221 107.052C245.231 107.769 243.791 108.308 241.903 108.67C242.982 109.209 243.791 109.749 244.33 110.288C244.869 110.919 245.59 112.176 246.491 114.066C248.467 118.022 249.726 120.541 250.358 121.62C251.256 123.149 251.976 124.047 252.696 124.405C253.143 124.678 253.682 124.856 254.314 124.856V125.487H246.31C245.859 124.497 245.05 122.698 243.883 119.91C241.453 114.694 239.654 111.547 238.217 110.469C237.316 109.66 236.149 109.298 234.619 109.298H233.449ZM233.449 108.67H234.439C236.237 108.67 237.586 108.581 238.487 108.4C240.104 107.95 241.453 106.871 242.531 105.161C243.252 103.902 243.613 102.465 243.613 100.847C243.613 99.137 243.163 97.6079 242.354 96.1708C241.364 94.6416 240.016 93.6518 238.395 93.3821C237.408 93.1125 236.056 93.0237 234.439 93.0237H233.449V108.67Z" fill="#1B1918"/>
<path fill-rule="evenodd" clip-rule="evenodd" d="M14.4789 150.127L14.9294 151.834H15.2878V147.878H14.9294L14.4789 149.677H9.44107V142.663H15.916L16.9946 145.001H17.3563V142.212H5.57391V142.482L7.01417 142.751V157.5L5.57391 157.859V158.128H11.6015V157.859L9.44107 157.5V150.127H14.4789ZM18.1652 152.465C18.1652 156.06 20.5033 158.22 23.92 158.22C27.2479 158.22 29.5859 156.06 29.5859 152.465C29.5859 148.957 27.2479 146.619 23.92 146.619C20.5033 146.619 18.1652 148.957 18.1652 152.465ZM20.5921 152.465C20.5921 148.868 21.9436 146.977 23.92 146.977C25.8076 146.977 27.159 148.868 27.159 152.465C27.159 156.06 25.8076 157.859 23.92 157.859C21.9436 157.859 20.5921 156.06 20.5921 152.465ZM32.1937 157.5L30.8454 157.859V158.128H36.6002V157.859L34.5318 157.5V149.766C34.5318 149.766 35.5216 147.158 37.3203 147.158C37.498 147.158 37.5899 147.247 37.6788 147.247V149.137C37.6788 150.035 38.2181 150.575 39.1191 150.575C39.836 150.575 40.4673 150.127 40.4673 149.137C40.4673 147.608 39.2967 146.619 37.8596 146.619C35.6104 146.619 34.5318 148.957 34.5318 148.957V148.868V146.888L34.2621 146.619L30.8454 146.977V147.158L32.1937 147.52V157.5ZM51.888 152.465L52.1577 152.104C52.2465 151.834 52.2465 151.475 52.2465 151.206C52.2465 148.506 50.1781 146.619 47.2119 146.619C43.9729 146.619 41.546 148.957 41.546 152.643C41.546 155.79 43.4336 158.22 47.3927 158.22C49.3692 158.22 50.8094 157.589 51.888 156.51L51.7072 156.241C50.7174 157.142 49.6388 157.5 48.3793 157.5C45.4131 157.5 43.9729 155.612 43.9729 152.465H51.888ZM47.3007 146.977C49.0107 146.977 50.0004 148.598 50.0004 151.745L43.9729 152.015C44.0649 148.598 45.6828 146.977 47.3007 146.977V146.977ZM53.6868 158.128H58.7215V157.859L57.3732 157.5V146.888L57.1035 146.619L53.6868 146.977V147.158L55.0351 147.52V157.5L53.6868 157.859V158.128ZM54.4958 143.56C54.4958 144.55 55.1239 145.181 56.1137 145.181C57.0147 145.181 57.7316 144.55 57.7316 143.56C57.7316 142.663 57.0147 142.031 56.1137 142.031C55.1239 142.031 54.4958 142.663 54.4958 143.56ZM69.2444 147.428L70.7735 146.977V146.707H66.0053C65.7356 146.707 65.466 146.707 65.1964 146.707C62.4078 146.707 60.4314 148.148 60.4314 150.397C60.4314 151.564 61.0595 152.643 61.9605 153.274C60.9707 154.264 60.4314 154.981 60.4314 156.06C60.4314 157.23 60.9707 157.95 62.0493 158.22C60.8819 158.848 59.9809 159.749 59.9809 160.736C59.9809 162.087 61.6908 162.716 64.5682 162.716C68.7938 162.716 70.8623 161.367 70.8623 159.029C70.8623 157.23 69.7837 156.241 67.1759 156.241H63.3976C62.1381 156.241 61.5988 155.79 61.5988 154.981C61.5988 154.534 61.7796 153.991 62.2301 153.452C63.0391 153.902 64.0289 154.083 65.1964 154.083C67.9849 154.083 69.9645 152.735 69.9645 150.397C69.9645 149.137 69.3332 148.059 68.2545 147.428H69.2444ZM62.6774 150.397C62.6774 148.148 63.7593 147.069 65.1964 147.069C66.6366 147.069 67.7152 148.236 67.7152 150.397C67.7152 152.643 66.6366 153.814 65.1964 153.814C63.7593 153.814 62.6774 152.643 62.6774 150.397ZM63.3976 158.398H67.4456C68.9747 158.398 69.422 159.118 69.422 159.927C69.422 161.456 67.7153 162.357 65.0187 162.357C63.0391 162.357 61.7796 161.818 61.7796 160.197C61.7796 159.657 61.9605 159.118 62.6774 158.309C62.8583 158.309 63.1279 158.398 63.3976 158.398V158.398ZM76.0777 148.868C76.8867 148.059 78.1461 147.428 79.3168 147.428C80.9347 147.428 81.5629 148.957 81.5629 150.936V157.5L80.3954 157.859V158.128H85.3412V157.859L83.9929 157.5V150.575C83.9929 148.237 82.9111 146.619 80.4842 146.619C79.0471 146.619 77.2483 147.247 76.0777 148.328H75.9889L76.0777 146.888L75.8081 146.619L72.3914 146.977V147.158L73.7397 147.52V157.5L72.3914 157.859V158.128H77.2484V157.859L76.0777 157.5V148.868ZM91.096 147.158H92.4442V155.251C92.4442 156.961 93.4341 158.22 95.6833 158.22C97.0316 158.22 98.0214 157.77 98.7383 156.961L98.4687 156.78C97.9293 157.23 97.3012 157.5 96.6699 157.5C95.4136 157.5 94.7823 156.602 94.7823 155.251V147.158H98.4687V146.707H94.7823V144.461L94.5127 144.192C93.7925 145.451 92.7139 146.618 91.096 146.977V147.158ZM101.076 157.5L99.7281 157.859V158.128H105.483V157.859L103.414 157.5V149.766C103.414 149.766 104.404 147.158 106.203 147.158C106.295 147.158 106.473 147.247 106.565 147.247V149.137C106.565 150.035 107.104 150.575 108.002 150.575C108.722 150.575 109.35 150.127 109.35 149.137C109.35 147.608 108.183 146.619 106.742 146.619C104.496 146.619 103.414 148.957 103.414 148.957V148.868V146.888L103.145 146.619L99.7281 146.977V147.158L101.076 147.52V157.5ZM117.893 156.78C117.985 157.858 118.614 158.128 119.603 158.128C120.501 158.128 121.221 157.95 121.672 157.589L121.491 157.411C121.31 157.589 120.952 157.681 120.771 157.681C120.412 157.681 120.231 157.5 120.231 157.05V150.127C120.231 148.148 118.614 146.707 115.555 146.707C113.309 146.707 111.06 147.697 111.06 149.496C111.06 150.397 111.688 150.844 112.408 150.844C113.217 150.844 113.849 150.305 113.849 149.407V147.608C114.388 147.158 114.927 147.069 115.466 147.069C116.996 147.069 117.805 148.148 117.805 149.677V151.834C113.398 152.643 110.79 153.005 110.79 155.612C110.79 157.23 111.688 158.22 113.849 158.22C115.378 158.22 116.815 157.681 117.805 156.691L117.893 156.78ZM117.805 156.152C117.084 156.961 116.006 157.5 115.016 157.5C113.849 157.5 113.128 156.78 113.128 155.343C113.128 152.913 114.658 152.735 117.805 152.104V156.152ZM133 157.411V141.942L132.731 141.673L129.314 142.031V142.212L130.662 142.571V147.247C130.034 146.977 129.225 146.619 128.055 146.619C124.549 146.619 122.481 148.868 122.481 152.735C122.481 155.971 123.918 158.22 126.976 158.22C128.505 158.22 129.765 157.681 130.662 156.691L130.754 156.78L130.662 157.859L131.024 158.22L134.352 157.95V157.681L133 157.411ZM130.662 156.152C130.034 156.961 129.136 157.5 128.147 157.5C126.167 157.5 124.908 155.432 124.908 152.373C124.908 148.957 126.167 146.977 128.416 146.977C129.225 146.977 129.853 147.158 130.662 147.608V156.152ZM145.95 152.465L146.312 152.104C146.401 151.834 146.401 151.475 146.401 151.206C146.401 148.506 144.332 146.619 141.366 146.619C138.127 146.619 135.7 148.957 135.7 152.643C135.7 155.79 137.588 158.22 141.544 158.22C143.523 158.22 144.964 157.589 146.042 156.51L145.773 156.241C144.872 157.142 143.793 157.5 142.445 157.5C139.567 157.5 138.127 155.612 138.127 152.465H145.95ZM141.455 146.977C143.165 146.977 144.151 148.598 144.151 151.745L138.127 152.015C138.219 148.598 139.837 146.977 141.455 146.977V146.977ZM166.095 149.407L167.532 149.046V148.776H164.207V149.046L165.556 149.407C165.556 151.476 165.286 153.005 164.566 154.442L159.979 148.687C161.6 147.878 163.037 146.707 163.037 144.909C163.037 143.383 162.047 142.123 159.62 142.123C157.101 142.123 155.934 143.472 155.934 145.359C155.934 146.53 156.292 147.697 157.371 148.957C155.303 149.858 153.326 150.936 153.326 153.633C153.326 156.421 155.483 158.22 158.811 158.22C160.88 158.22 162.228 157.589 163.218 156.51L164.566 158.128H168.344V157.859L167.085 157.5L164.924 154.803C165.737 153.274 166.095 151.384 166.095 149.407V149.407ZM159.439 157.589C157.012 157.589 155.664 156.421 155.664 153.991C155.664 151.745 156.832 150.755 158.091 150.035L162.948 156.152C161.958 157.23 160.88 157.589 159.439 157.589ZM158.091 144.731C158.091 143.202 158.811 142.571 160.071 142.571C161.419 142.571 162.498 143.383 162.498 144.731C162.498 146.349 161.06 147.247 159.439 148.059C158.45 146.707 158.091 145.81 158.091 144.731V144.731ZM173.918 158.128H178.953V157.859L177.605 157.5V141.942L177.335 141.673L173.918 142.031V142.212L175.267 142.571V157.5L173.918 157.859V158.128ZM180.304 152.465C180.304 156.06 182.55 158.22 185.967 158.22C189.295 158.22 191.633 156.06 191.633 152.465C191.633 148.957 189.295 146.619 185.967 146.619C182.55 146.619 180.304 148.957 180.304 152.465ZM182.642 152.465C182.642 148.868 184.08 146.977 185.967 146.977C187.947 146.977 189.295 148.868 189.295 152.465C189.295 156.06 187.947 157.859 185.967 157.859C184.08 157.859 182.642 156.06 182.642 152.465ZM202.606 147.428L204.132 146.977V146.707H199.456C199.187 146.707 198.917 146.707 198.647 146.707C195.862 146.707 193.793 148.148 193.793 150.397C193.793 151.564 194.333 152.643 195.411 153.274C194.333 154.264 193.793 154.981 193.793 156.06C193.793 157.23 194.333 157.95 195.411 158.22C194.152 158.848 193.254 159.749 193.254 160.736C193.254 162.087 195.142 162.716 198.019 162.716C202.156 162.716 204.224 161.367 204.224 159.029C204.224 157.23 203.146 156.241 200.627 156.241H196.849C195.592 156.241 195.05 155.79 195.05 154.981C195.05 154.534 195.231 153.991 195.681 153.452C196.49 153.902 197.48 154.083 198.647 154.083C201.436 154.083 203.323 152.735 203.323 150.397C203.323 149.137 202.695 148.059 201.617 147.428H202.606ZM196.132 150.397C196.132 148.148 197.21 147.069 198.647 147.069C200.088 147.069 201.077 148.236 201.077 150.397C201.077 152.643 200.088 153.814 198.647 153.814C197.21 153.814 196.132 152.643 196.132 150.397ZM196.849 158.398H200.897C202.337 158.398 202.784 159.118 202.784 159.927C202.784 161.456 201.077 162.357 198.47 162.357C196.49 162.357 195.231 161.818 195.231 160.197C195.231 159.657 195.411 159.118 196.132 158.309C196.309 158.309 196.579 158.398 196.849 158.398V158.398ZM205.754 158.128H210.788V157.859L209.44 157.5V146.888L209.17 146.619L205.754 146.977V147.158L207.102 147.52V157.5L205.754 157.859V158.128ZM206.47 143.56C206.47 144.55 207.191 145.181 208.092 145.181C209.081 145.181 209.71 144.55 209.71 143.56C209.71 142.663 209.081 142.031 208.092 142.031C207.191 142.031 206.47 142.663 206.47 143.56ZM212.317 157.681L212.587 157.95L213.037 157.5C213.935 158.039 215.014 158.22 216.184 158.22C219.331 158.22 220.591 156.872 220.591 154.892C220.591 152.465 218.523 151.745 216.543 151.114C215.014 150.755 213.935 150.397 213.935 149.137C213.935 147.878 214.925 146.977 216.454 146.977C217.533 146.977 219.062 147.428 219.512 149.585H219.96V147.158L219.782 146.977L219.243 147.339C218.434 146.888 217.444 146.619 216.365 146.619C213.577 146.619 212.406 148.059 212.406 149.946C212.406 152.465 214.297 152.913 216.184 153.452C217.891 153.902 219.062 154.264 219.062 155.612C219.062 157.05 217.891 157.859 216.096 157.859C214.836 157.859 213.307 157.411 212.768 155.251H212.317V157.681ZM221.939 147.158H223.287V155.251C223.287 156.961 224.366 158.22 226.526 158.22C227.875 158.22 228.865 157.77 229.585 156.961L229.312 156.78C228.865 157.23 228.233 157.5 227.516 157.5C226.257 157.5 225.626 156.602 225.626 155.251V147.158H229.404V146.707H225.626V144.461L225.356 144.192C224.728 145.451 223.557 146.618 221.939 146.977V147.158ZM230.663 158.128H235.698V157.859L234.35 157.5V146.888L234.08 146.619L230.663 146.977V147.158L232.012 147.52V157.5L230.663 157.859V158.128ZM231.38 143.56C231.38 144.55 232.1 145.181 233.001 145.181C233.899 145.181 234.619 144.55 234.619 143.56C234.619 142.663 233.899 142.031 233.001 142.031C232.1 142.031 231.38 142.663 231.38 143.56ZM244.692 149.496C244.692 150.486 245.231 151.025 246.129 151.025C246.849 151.025 247.477 150.575 247.477 149.585C247.477 147.697 245.139 146.619 242.712 146.619C239.026 146.619 236.957 148.868 236.957 152.554C236.957 155.882 238.845 158.22 242.712 158.22C244.692 158.22 246.04 157.589 247.207 156.51L246.938 156.241C246.04 157.142 244.961 157.589 243.613 157.589C240.825 157.589 239.384 155.52 239.384 152.015C239.384 148.957 240.644 146.977 242.801 146.977C243.432 146.977 244.06 147.158 244.692 147.608V149.496ZM249.726 157.681L249.996 157.95L250.447 157.5C251.344 158.039 252.426 158.22 253.594 158.22C256.741 158.22 258 156.872 258 154.892C258 152.465 255.932 151.745 253.952 151.114C252.426 150.755 251.436 150.397 251.436 149.137C251.436 147.878 252.334 146.977 253.863 146.977C254.942 146.977 256.471 147.428 256.921 149.585H257.372V147.158L257.191 146.977L256.741 147.339C255.932 146.888 254.853 146.619 253.774 146.619C250.986 146.619 249.815 148.059 249.815 149.946C249.815 152.465 251.706 152.913 253.594 153.452C255.303 153.902 256.471 154.264 256.471 155.612C256.471 157.05 255.303 157.859 253.505 157.859C252.245 157.859 250.716 157.411 250.266 155.251H249.726V157.681Z" fill="#1B1918"/>
</svg>
